<?xml version="1.0" encoding="utf-8"?>
<!-- Generator: Adobe Illustrator 16.0.0, SVG Export Plug-In . SVG Version: 6.00 Build 0)  -->
<!DOCTYPE svg PUBLIC "-//W3C//DTD SVG 1.1//EN" "http://www.w3.org/Graphics/SVG/1.1/DTD/svg11.dtd">
<svg version="1.1" id="Layer_1" xmlns="http://www.w3.org/2000/svg" xmlns:xlink="http://www.w3.org/1999/xlink" x="0px" y="0px"
	   viewBox="0 0 68.029 68.029" enable-background="new 0 0 68.029 68.029" xml:space="preserve">
<g fill="#FFFFFF">
	<path d="M57.369,44.15c1.993-2.274,2.938-7.338,2.175-13.007c-0.876-6.506-3.71-11.646-6.671-12.505
		c-1.122-5.169-2.366-10.312-3.734-15.421c0.044,0.007,0.087,0.015,0.129,0.024c-0.008-0.024-0.017-0.057-0.022-0.083
		c-0.147-0.549-0.84-0.672-1.652-0.557c-1.145,0.132-2.579,0.774-3.056,1.385c-1.855,2.379-3.47,4.715-5.215,6.98l7.268,44.576
		c1.861,1.085,3.689,2.249,5.536,3.479c0.289,0.192,0.886,0.313,1.598,0.361c1.907,0.259,5.338-0.131,5.237-1.216
		c-0.163-1.738-0.246-2.61-0.426-4.351C58.194,50.588,57.805,47.366,57.369,44.15z"/>
	<path d="M34.031,16.872c-3.325,3.076-7.637,5.939-14.089,8.498c-0.889,0.351-1.306,0.451-1.981,0.636
		c-0.792-0.259-1.611-0.348-2.433-0.237c-1.63,0.22-3.04,1.184-4.115,2.651c-1.837,2.392-2.75,6.212-2.193,10.34
		c0.573,4.257,2.564,7.786,5.076,9.558c0.164,2.368,1.004,11.551,4.361,16.138c0.007,0.005,0.015,0.009,0.021,0.014
		c0.003,0.004,0.005,0.007,0.008,0.012c1.735,1.216,6.019-0.246,6.824-2.204c-0.769-0.98-1.309-2.303-1.683-3.782
		c0.123-0.244,0.177-0.516,0.14-0.792c-0.004-0.029-0.011-0.057-0.016-0.084c0.002,0.003,0.005,0.006,0.005,0.006
		s-0.241-0.971-0.33-1.639c-0.039-0.287-0.015-0.521,0.024-0.696c0.132-0.249,0.191-0.53,0.152-0.816
		c-0.003-0.029-0.01-0.058-0.017-0.086c0.004,0.004,0.007,0.007,0.007,0.007s-0.241-0.971-0.331-1.639
		c-0.088-0.665,0.158-1.048,0.158-1.048l-0.021,0.02c0.134-0.252,0.195-0.535,0.157-0.824c-0.058-0.425-0.315-0.78-0.681-1.008
		c0.015-0.698,0.042-1.354,0.075-1.947c1.072,0.011,2.114,0.068,2.695,0.159c0.531,0.084,1.053,0.175,1.569,0.269v2.824
		c0,1.056,0.855,1.911,1.911,1.911c1.053,0,1.908-0.855,1.908-1.911v-2.008c2.087,0.515,4.049,1.115,5.916,1.793
		c0.893,0.338,1.763,0.694,2.616,1.067L34.031,16.872z"/>
</g>
</svg>
