<?xml version="1.0" encoding="utf-8"?>
<!-- Generator: Adobe Illustrator 16.0.0, SVG Export Plug-In . SVG Version: 6.00 Build 0)  -->
<!DOCTYPE svg PUBLIC "-//W3C//DTD SVG 1.1//EN" "http://www.w3.org/Graphics/SVG/1.1/DTD/svg11.dtd">
<svg version="1.1" id="Layer_1" xmlns="http://www.w3.org/2000/svg" xmlns:xlink="http://www.w3.org/1999/xlink" x="0px" y="0px"
	   preserveAspectRatio="xMidYMid meet" viewBox="0 0 68.029 68.029" enable-background="new 0 0 68.029 68.029" xml:space="preserve">
<path d="M63.229,3.418H4.801c-1.086,0-1.967,0.881-1.967,1.967v58.428c0,1.087,0.881,1.967,1.967,1.967h58.428
	c1.087,0,1.966-0.88,1.966-1.967V5.385C65.195,4.299,64.316,3.418,63.229,3.418z M38.522,45.972
	c-0.252,4.77-2.365,8.565-6.219,11.332c-5.531,3.972-13.27,3.017-17.862-2.1c-2.353-2.622-3.71-5.664-3.771-9.195
	c-0.078-4.431-0.054-8.863-0.066-13.296c-0.008-2.621-0.006-5.243,0.004-7.864c0.005-1.307,0.25-2.542,1.308-3.446
	c1.391-1.19,2.972-1.431,4.636-0.723c1.668,0.709,2.414,2.083,2.419,3.86c0.014,3.527,0.005,7.055,0.005,10.583
	c0.011,0,0.021,0,0.032,0c0,3.526-0.041,7.054,0.014,10.58c0.043,2.79,2.386,5.208,5.163,5.465c2.649,0.244,5.361-1.78,5.912-4.495
	c0.408-2.018,0.229-3.937-1.431-5.416c-1.121-1-2.5-1.318-3.963-1.315c-1.794,0.004-3.164-0.734-3.877-2.389
	c-0.738-1.713-0.483-3.359,0.731-4.805c0.638-0.762,1.503-1.16,2.478-1.207c5.634-0.271,10.809,2.381,13.262,7.571
	C38.321,41.281,38.649,43.594,38.522,45.972z M49.6,42.016c-1.754,0.003-3.506-0.019-5.258,0.018
	c-0.543,0.011-0.684-0.177-0.699-0.683c-0.094-3.168-1.072-6.051-2.977-8.58c-3.029-4.024-7.06-6.186-12.128-6.34
	c-0.095-0.003-0.19-0.016-0.354-0.03c0-2.141,0-4.234,0-6.435c5.023,0.037,9.533,1.537,13.455,4.649
	c5.559,4.41,8.307,10.236,8.518,17.359C49.932,41.993,49.766,42.016,49.6,42.016z M54.993,41.998
	c-0.129-7.33-2.656-13.727-7.83-18.955c-5.182-5.235-11.537-7.845-18.977-7.977c0-2.14,0-4.234,0-6.425
	c4.1,0.006,8.061,0.708,11.87,2.202c7.248,2.841,12.857,7.632,16.809,14.335c3.045,5.166,4.51,10.775,4.547,16.82
	C59.27,41.998,57.165,41.998,54.993,41.998z"/>
</svg>
