<?xml version="1.0" encoding="utf-8"?>
<!-- Generator: Adobe Illustrator 16.0.0, SVG Export Plug-In . SVG Version: 6.00 Build 0)  -->
<!DOCTYPE svg PUBLIC "-//W3C//DTD SVG 1.1//EN" "http://www.w3.org/Graphics/SVG/1.1/DTD/svg11.dtd" [
	<!ENTITY ns_extend "http://ns.adobe.com/Extensibility/1.0/">
	<!ENTITY ns_ai "http://ns.adobe.com/AdobeIllustrator/10.0/">
	<!ENTITY ns_graphs "http://ns.adobe.com/Graphs/1.0/">
	<!ENTITY ns_vars "http://ns.adobe.com/Variables/1.0/">
	<!ENTITY ns_imrep "http://ns.adobe.com/ImageReplacement/1.0/">
	<!ENTITY ns_sfw "http://ns.adobe.com/SaveForWeb/1.0/">
	<!ENTITY ns_custom "http://ns.adobe.com/GenericCustomNamespace/1.0/">
	<!ENTITY ns_adobe_xpath "http://ns.adobe.com/XPath/1.0/">
]>
<svg version="1.1" id="Layer_1" xmlns:x="&ns_extend;" xmlns:i="&ns_ai;" xmlns:graph="&ns_graphs;"
	 xmlns="http://www.w3.org/2000/svg" xmlns:xlink="http://www.w3.org/1999/xlink" x="0px" y="0px"
	 viewBox="0 20 710.715 165.714" preserveAspectRatio="xMidYMid meet" enable-background="new 0 20 710.715 165.714" xml:space="preserve">
<metadata>
	<sfw  xmlns="&ns_sfw;">
		<slices></slices>
		<sliceSourceBounds  height="156.865" width="702.243" y="-371.907" x="49.275" bottomLeftOrigin="true"></sliceSourceBounds>
	</sfw>
</metadata>
<g>
	<path fill="#2D3F62" d="M283.254,80.891c0,8.404-1.098,15.591-3.294,21.564c-2.195,5.973-5.346,10.847-9.455,14.625
		c-4.108,3.777-9.1,6.551-14.978,8.321s-12.878,2.654-21,2.654h-21.883c-1.558,0-2.869-0.46-3.931-1.379
		c-1.062-0.923-1.593-2.42-1.593-4.499V42.292c0-2.077,0.531-3.576,1.593-4.496c1.062-0.922,2.373-1.382,3.931-1.382h23.513
		c8.167,0,15.096,0.956,20.786,2.867c5.689,1.914,10.481,4.746,14.376,8.5c3.896,3.754,6.857,8.393,8.888,13.916
		C282.238,67.221,283.254,73.619,283.254,80.891z M263.991,81.527c0-4.343-0.508-8.38-1.523-12.111
		c-1.016-3.728-2.645-6.962-4.887-9.701c-2.243-2.738-5.123-4.875-8.64-6.409c-3.519-1.535-8.133-2.302-13.845-2.302h-9.42v62.323
		h9.703c5.1,0,9.395-0.66,12.89-1.983c3.493-1.32,6.41-3.315,8.746-5.985c2.338-2.667,4.083-5.984,5.241-9.949
		C263.412,91.443,263.991,86.816,263.991,81.527z"/>
	<path fill="#2D3F62" d="M316.682,41.088c0,3.589-0.732,6.069-2.196,7.437c-1.464,1.371-4.179,2.055-8.144,2.055
		c-4.014,0-6.718-0.663-8.11-1.983c-1.393-1.323-2.089-3.706-2.089-7.153c0-3.588,0.72-6.078,2.161-7.472
		c1.439-1.393,4.167-2.088,8.179-2.088c3.966,0,6.658,0.672,8.074,2.017C315.973,35.246,316.682,37.644,316.682,41.088z
		 M315.336,125.649c0,0.473-0.142,0.885-0.426,1.239c-0.284,0.354-0.767,0.649-1.451,0.885c-0.686,0.238-1.594,0.413-2.727,0.531
		c-1.133,0.117-2.574,0.177-4.32,0.177c-1.748,0-3.188-0.06-4.32-0.177c-1.134-0.118-2.043-0.293-2.727-0.531
		c-0.685-0.235-1.168-0.531-1.452-0.885c-0.284-0.354-0.424-0.767-0.424-1.239v-63.03c0-0.472,0.141-0.886,0.424-1.24
		c0.284-0.354,0.767-0.66,1.452-0.92c0.684-0.259,1.593-0.461,2.727-0.603c1.133-0.141,2.573-0.212,4.32-0.212
		c1.746,0,3.187,0.072,4.32,0.212c1.133,0.141,2.042,0.343,2.727,0.603c0.684,0.26,1.167,0.566,1.451,0.92
		c0.284,0.354,0.426,0.768,0.426,1.24V125.649z"/>
	<path fill="#2D3F62" d="M390.054,66.866c0,2.267-0.263,3.944-0.781,5.029c-0.52,1.087-1.156,1.628-1.912,1.628h-7.437
		c1.039,1.134,1.782,2.421,2.233,3.861c0.448,1.44,0.672,2.939,0.672,4.498c0,3.683-0.615,6.951-1.842,9.809
		c-1.228,2.855-2.987,5.265-5.275,7.223c-2.293,1.961-5.053,3.448-8.286,4.462c-3.236,1.016-6.835,1.523-10.8,1.523
		c-2.031,0-3.966-0.249-5.808-0.744c-1.841-0.496-3.257-1.073-4.25-1.735c-0.566,0.614-1.074,1.347-1.522,2.195
		c-0.449,0.851-0.673,1.795-0.673,2.834c0,1.37,0.603,2.49,1.806,3.363c1.204,0.875,2.892,1.358,5.063,1.451l15.367,0.568
		c3.59,0.14,6.788,0.647,9.599,1.522c2.808,0.872,5.17,2.101,7.082,3.683c1.912,1.582,3.375,3.481,4.391,5.701
		c1.015,2.219,1.522,4.743,1.522,7.577c0,3.115-0.684,6.055-2.052,8.817c-1.372,2.763-3.425,5.157-6.163,7.188
		c-2.737,2.03-6.174,3.636-10.305,4.816c-4.133,1.179-8.959,1.77-14.483,1.77c-5.382,0-9.975-0.424-13.774-1.274
		c-3.801-0.849-6.917-2.03-9.349-3.54c-2.432-1.513-4.203-3.316-5.311-5.418c-1.11-2.102-1.666-4.404-1.666-6.904
		c0-1.559,0.201-3.047,0.604-4.462c0.401-1.419,0.992-2.774,1.77-4.073c0.78-1.298,1.735-2.537,2.869-3.719
		c1.133-1.178,2.432-2.313,3.895-3.398c-2.03-1.085-3.6-2.562-4.709-4.427c-1.11-1.864-1.665-3.906-1.665-6.126
		c0-2.784,0.638-5.322,1.913-7.613c1.274-2.291,2.926-4.354,4.957-6.197c-1.653-1.652-2.975-3.635-3.966-5.949
		c-0.99-2.312-1.486-5.191-1.486-8.64c0-3.683,0.648-6.975,1.947-9.88c1.298-2.903,3.104-5.356,5.418-7.365
		c2.313-2.005,5.075-3.54,8.286-4.603c3.21-1.063,6.751-1.593,10.623-1.593c1.984,0,3.884,0.117,5.7,0.353
		c1.817,0.238,3.507,0.567,5.065,0.992h20.042c0.804,0,1.451,0.52,1.947,1.559S390.054,64.413,390.054,66.866z M371.357,132.235
		c0-2.124-0.851-3.754-2.55-4.887c-1.702-1.134-4.038-1.746-7.012-1.842l-12.676-0.353c-1.228,0.896-2.208,1.759-2.939,2.584
		c-0.732,0.826-1.322,1.618-1.77,2.373c-0.449,0.755-0.744,1.488-0.886,2.196c-0.142,0.708-0.212,1.439-0.212,2.195
		c0,2.359,1.192,4.154,3.577,5.382c2.384,1.227,5.747,1.84,10.092,1.84c2.691,0,4.958-0.271,6.798-0.813
		c1.842-0.544,3.328-1.263,4.462-2.16c1.134-0.898,1.936-1.9,2.408-3.01C371.119,134.631,371.357,133.463,371.357,132.235z
		 M367.177,81.812c0-3.399-0.944-6.043-2.832-7.933c-1.888-1.889-4.557-2.832-8.003-2.832c-1.747,0-3.282,0.293-4.604,0.884
		c-1.321,0.591-2.419,1.392-3.293,2.407c-0.874,1.016-1.523,2.196-1.947,3.542c-0.426,1.345-0.638,2.75-0.638,4.214
		c0,3.21,0.944,5.747,2.833,7.613c1.888,1.866,4.509,2.797,7.861,2.797c1.794,0,3.353-0.282,4.673-0.85
		c1.323-0.566,2.42-1.347,3.294-2.338c0.875-0.991,1.533-2.136,1.983-3.435C366.952,84.585,367.177,83.227,367.177,81.812z"/>
	<path fill="#2D3F62" d="M421.073,41.088c0,3.589-0.733,6.069-2.197,7.437c-1.464,1.371-4.177,2.055-8.143,2.055
		c-4.014,0-6.719-0.663-8.111-1.983c-1.392-1.323-2.088-3.706-2.088-7.153c0-3.588,0.72-6.078,2.159-7.472
		c1.44-1.393,4.169-2.088,8.181-2.088c3.966,0,6.657,0.672,8.073,2.017C420.363,35.246,421.073,37.644,421.073,41.088z
		 M419.729,125.649c0,0.473-0.143,0.885-0.427,1.239c-0.283,0.354-0.767,0.649-1.451,0.885c-0.684,0.238-1.592,0.413-2.727,0.531
		c-1.135,0.117-2.574,0.177-4.319,0.177c-1.749,0-3.188-0.06-4.321-0.177c-1.133-0.118-2.043-0.293-2.727-0.531
		c-0.687-0.235-1.168-0.531-1.452-0.885c-0.283-0.354-0.424-0.767-0.424-1.239v-63.03c0-0.472,0.141-0.886,0.424-1.24
		c0.284-0.354,0.766-0.66,1.452-0.92c0.684-0.259,1.594-0.461,2.727-0.603c1.133-0.141,2.572-0.212,4.321-0.212
		c1.745,0,3.185,0.072,4.319,0.212c1.135,0.141,2.043,0.343,2.727,0.603c0.685,0.26,1.168,0.566,1.451,0.92
		c0.284,0.354,0.427,0.768,0.427,1.24V125.649z"/>
	<path fill="#2D3F62" d="M537.997,125.649c0,0.473-0.141,0.885-0.424,1.239c-0.283,0.354-0.754,0.649-1.416,0.885
		c-0.663,0.238-1.559,0.413-2.691,0.531c-1.133,0.117-2.575,0.177-4.322,0.177c-1.792,0-3.255-0.06-4.39-0.177
		c-1.133-0.118-2.042-0.293-2.726-0.531c-0.687-0.235-1.157-0.531-1.415-0.885c-0.263-0.354-0.391-0.767-0.391-1.239V88.185
		c0-2.124-0.2-4.06-0.602-5.809c-0.404-1.746-1.018-3.245-1.842-4.496c-0.827-1.251-1.866-2.219-3.116-2.903
		c-1.252-0.684-2.753-1.027-4.497-1.027c-2.125,0-4.275,0.827-6.445,2.479c-2.173,1.651-4.533,4.062-7.083,7.222v41.998
		c0,0.473-0.142,0.885-0.425,1.239c-0.282,0.354-0.767,0.649-1.451,0.885c-0.684,0.238-1.595,0.413-2.725,0.531
		c-1.135,0.117-2.551,0.177-4.252,0.177c-1.746,0-3.186-0.06-4.319-0.177c-1.135-0.118-2.043-0.293-2.727-0.531
		c-0.685-0.235-1.169-0.531-1.452-0.885c-0.283-0.354-0.425-0.767-0.425-1.239V88.185c0-2.124-0.2-4.06-0.601-5.809
		c-0.404-1.746-1.005-3.245-1.809-4.496c-0.801-1.251-1.84-2.219-3.115-2.903s-2.763-1.027-4.46-1.027
		c-2.174,0-4.347,0.827-6.517,2.479c-2.173,1.651-4.51,4.062-7.013,7.222v41.998c0,0.473-0.141,0.885-0.424,1.239
		c-0.284,0.354-0.768,0.649-1.451,0.885c-0.687,0.238-1.595,0.413-2.728,0.531c-1.132,0.117-2.574,0.177-4.321,0.177
		c-1.744,0-3.185-0.06-4.319-0.177c-1.134-0.118-2.042-0.293-2.727-0.531c-0.684-0.235-1.167-0.531-1.451-0.885
		c-0.284-0.354-0.425-0.767-0.425-1.239V62.476c0-0.47,0.117-0.884,0.355-1.24c0.234-0.353,0.658-0.648,1.273-0.884
		c0.614-0.235,1.404-0.413,2.371-0.532c0.968-0.116,2.186-0.176,3.649-0.176c1.511,0,2.761,0.06,3.752,0.176
		c0.991,0.119,1.759,0.296,2.302,0.532c0.542,0.236,0.933,0.532,1.169,0.884c0.235,0.355,0.354,0.77,0.354,1.24v7.296
		c3.492-3.777,6.975-6.609,10.445-8.5c3.47-1.888,7.095-2.832,10.871-2.832c2.598,0,4.934,0.272,7.013,0.813
		c2.077,0.544,3.93,1.323,5.561,2.338c1.626,1.015,3.032,2.231,4.212,3.647s2.171,2.998,2.975,4.745
		c1.887-2.03,3.74-3.778,5.561-5.241c1.816-1.464,3.611-2.656,5.382-3.576c1.77-0.922,3.542-1.604,5.311-2.054
		c1.771-0.449,3.578-0.673,5.418-0.673c4.203,0,7.743,0.708,10.624,2.124c2.88,1.416,5.205,3.341,6.974,5.772
		c1.773,2.432,3.035,5.275,3.792,8.534c0.754,3.258,1.131,6.705,1.131,10.34V125.649z"/>
	<path fill="#2D3F62" d="M609.315,125.862c0,0.663-0.236,1.179-0.709,1.559c-0.471,0.376-1.215,0.648-2.23,0.813
		c-1.016,0.164-2.512,0.247-4.496,0.247c-2.125,0-3.672-0.083-4.64-0.247c-0.968-0.165-1.654-0.438-2.055-0.813
		c-0.4-0.38-0.601-0.896-0.601-1.559v-5.028c-2.597,2.785-5.56,4.957-8.889,6.515c-3.33,1.56-7.022,2.337-11.083,2.337
		c-3.352,0-6.434-0.436-9.242-1.309c-2.809-0.874-5.24-2.172-7.294-3.896c-2.055-1.723-3.647-3.86-4.783-6.409
		c-1.13-2.55-1.696-5.524-1.696-8.924c0-3.683,0.718-6.881,2.159-9.597c1.439-2.715,3.588-4.957,6.443-6.728
		c2.857-1.771,6.408-3.08,10.661-3.931c4.248-0.851,9.181-1.275,14.8-1.275h6.161v-3.824c0-1.982-0.203-3.718-0.604-5.206
		c-0.4-1.487-1.061-2.727-1.982-3.718c-0.92-0.991-2.148-1.723-3.682-2.195c-1.534-0.473-3.434-0.708-5.7-0.708
		c-2.976,0-5.631,0.331-7.969,0.991c-2.338,0.66-4.401,1.392-6.197,2.195c-1.792,0.803-3.291,1.535-4.497,2.195
		c-1.201,0.662-2.185,0.992-2.938,0.992c-0.521,0-0.98-0.165-1.381-0.496c-0.4-0.33-0.732-0.803-0.991-1.416
		c-0.26-0.613-0.46-1.371-0.604-2.267c-0.14-0.896-0.209-1.888-0.209-2.975c0-1.463,0.114-2.62,0.353-3.47
		c0.235-0.851,0.684-1.616,1.344-2.303c0.663-0.682,1.819-1.44,3.471-2.265c1.654-0.827,3.589-1.595,5.809-2.303
		c2.219-0.708,4.639-1.285,7.26-1.734c2.62-0.449,5.322-0.673,8.106-0.673c4.959,0,9.196,0.484,12.715,1.452
		c3.516,0.967,6.409,2.455,8.676,4.462c2.265,2.007,3.919,4.59,4.957,7.753c1.038,3.165,1.558,6.917,1.558,11.26V125.862z
		 M591.822,98.808h-6.798c-2.88,0-5.337,0.213-7.365,0.637c-2.031,0.424-3.685,1.063-4.959,1.911
		c-1.274,0.852-2.208,1.879-2.798,3.082c-0.588,1.204-0.884,2.585-0.884,4.143c0,2.646,0.836,4.722,2.513,6.233
		c1.677,1.511,4.001,2.267,6.977,2.267c2.502,0,4.803-0.639,6.905-1.914c2.102-1.273,4.237-3.139,6.409-5.595V98.808z"/>
	<path fill="#2D3F62" d="M690.688,93.143c0,5.617-0.601,10.683-1.805,15.19c-1.206,4.509-2.962,8.346-5.274,11.507
		c-2.317,3.166-5.195,5.597-8.643,7.297c-3.446,1.699-7.39,2.548-11.827,2.548c-1.841,0-3.53-0.176-5.063-0.529
		c-1.534-0.354-3.021-0.899-4.462-1.63c-1.44-0.731-2.869-1.64-4.285-2.728c-1.416-1.084-2.88-2.359-4.391-3.823v29.745
		c0,0.472-0.141,0.896-0.424,1.275c-0.284,0.376-0.768,0.695-1.451,0.956c-0.687,0.257-1.596,0.46-2.728,0.601
		c-1.133,0.143-2.574,0.214-4.321,0.214c-1.744,0-3.185-0.071-4.319-0.214c-1.134-0.141-2.042-0.344-2.727-0.601
		c-0.684-0.261-1.169-0.58-1.452-0.956c-0.283-0.38-0.425-0.804-0.425-1.275V62.476c0-0.47,0.117-0.884,0.355-1.24
		c0.234-0.353,0.646-0.648,1.238-0.884c0.591-0.235,1.368-0.413,2.338-0.532c0.965-0.116,2.184-0.176,3.647-0.176
		c1.416,0,2.607,0.06,3.576,0.176c0.966,0.119,1.746,0.296,2.337,0.532c0.591,0.236,1.003,0.532,1.239,0.884
		c0.235,0.355,0.355,0.77,0.355,1.24v7.437c1.839-1.888,3.645-3.552,5.417-4.994c1.769-1.44,3.576-2.644,5.418-3.611
		c1.841-0.968,3.74-1.687,5.699-2.16c1.96-0.472,4.05-0.708,6.269-0.708c4.627,0,8.569,0.908,11.827,2.727
		c3.258,1.817,5.914,4.31,7.967,7.471c2.055,3.165,3.554,6.848,4.497,11.048C690.216,83.889,690.688,88.374,690.688,93.143z
		 M672.135,94.417c0-2.69-0.203-5.277-0.604-7.755c-0.401-2.479-1.088-4.685-2.055-6.622c-0.968-1.936-2.241-3.48-3.823-4.638
		c-1.583-1.157-3.554-1.735-5.913-1.735c-1.181,0-2.349,0.176-3.506,0.532c-1.159,0.353-2.337,0.931-3.54,1.735
		c-1.205,0.803-2.445,1.84-3.719,3.115c-1.275,1.275-2.622,2.857-4.038,4.745v20.821c2.503,3.165,4.887,5.608,7.153,7.329
		c2.266,1.727,4.627,2.587,7.082,2.587c2.312,0,4.284-0.59,5.913-1.771c1.63-1.18,2.963-2.727,4.002-4.639
		c1.038-1.911,1.807-4.073,2.302-6.48C671.886,99.232,672.135,96.825,672.135,94.417z"/>
</g>
<g>
	<linearGradient id="SVGID_1_" gradientUnits="userSpaceOnUse" x1="83.1265" y1="160.7642" x2="83.1265" y2="3.8994">
		<stop  offset="0" style="stop-color:#121D30"/>
		<stop  offset="0.092" style="stop-color:#1E386A"/>
		<stop  offset="1" style="stop-color:#617498"/>
	</linearGradient>
	<path fill="url(#SVGID_1_)" d="M37.242,160.764c-17.946,0-32.538-14.598-32.538-32.554V36.449c0-17.951,14.592-32.55,32.538-32.55
		h91.756c17.959,0,32.551,14.6,32.551,32.55v91.761c0,17.956-14.592,32.554-32.551,32.554H37.242z"/>
	<linearGradient id="SVGID_2_" gradientUnits="userSpaceOnUse" x1="83.1245" y1="155.3999" x2="83.1245" y2="9.2617">
		<stop  offset="0" style="stop-color:#2D3F62"/>
		<stop  offset="1" style="stop-color:#6F87B6"/>
	</linearGradient>
	<path fill="url(#SVGID_2_)" d="M128.998,155.4H37.242c-14.978,0-27.183-12.194-27.183-27.189V36.449
		c0-14.984,12.206-27.188,27.183-27.188h91.756c14.988,0,27.192,12.204,27.192,27.188v91.761
		C156.19,143.206,143.986,155.4,128.998,155.4L128.998,155.4z"/>
	<linearGradient id="SVGID_3_" gradientUnits="userSpaceOnUse" x1="83.1245" y1="36.4492" x2="83.1245" y2="9.2612">
		<stop  offset="0" style="stop-color:#5C7EAC"/>
		<stop  offset="1" style="stop-color:#96AFD3"/>
	</linearGradient>
	<path fill="url(#SVGID_3_)" d="M156.19,36.449h-2.684c0-13.513-10.992-24.507-24.509-24.507H37.242
		c-13.51,0-24.497,10.994-24.497,24.507h-2.686c0-14.988,12.195-27.188,27.183-27.188h91.756
		C143.99,9.261,156.19,21.461,156.19,36.449L156.19,36.449z"/>
	<linearGradient id="SVGID_4_" gradientUnits="userSpaceOnUse" x1="81.7222" y1="127.8345" x2="81.7222" y2="38.6548">
		<stop  offset="0" style="stop-color:#93B0D9"/>
		<stop  offset="1" style="stop-color:#C9DBF1"/>
	</linearGradient>
	<path fill="url(#SVGID_4_)" d="M110.232,86.916c2.5-2.344,4.091-5.654,4.091-9.352c0-7.092-5.771-12.869-12.866-12.869H87.527
		L87.24,51.513c0-7.104-5.771-12.859-12.858-12.859c-7.095,0-12.86,5.755-12.86,12.859l0.283,13.934
		c-7.411,2.118-12.683,8.86-12.683,16.781V110.3c0,9.666,7.876,17.534,17.551,17.534h14.025c1.143,0,2.244-0.122,3.321-0.327
		c0.913,0.192,1.854,0.327,2.828,0.327h14.61c7.095,0,12.866-5.763,12.866-12.86c0-3.688-1.59-6.998-4.097-9.345
		c2.506-2.35,4.097-5.667,4.097-9.369C114.323,92.572,112.732,89.261,110.232,86.916z M56.143,110.3V82.228
		c0-5.386,4.095-9.864,9.516-10.394l3.158-0.315L68.53,51.513c0-3.227,2.62-5.843,5.851-5.843c3.221,0,5.841,2.616,5.841,5.843
		l0.29,14.917c-3.88,2.217-6.533,6.346-6.533,11.134c0,3.698,1.587,7.008,4.087,9.352c-2.5,2.346-4.087,5.656-4.087,9.345
		c0,3.702,1.587,7.02,4.094,9.369c-2.507,2.347-4.094,5.656-4.094,9.345c0,2.116,0.556,4.092,1.467,5.845h-8.774
		C60.872,120.819,56.143,116.1,56.143,110.3z M101.457,120.819h-14.61c-3.223,0-5.852-2.622-5.852-5.845
		c0-3.218,2.629-5.84,5.852-5.84h14.61c3.221,0,5.85,2.622,5.85,5.84C107.307,118.197,104.677,120.819,101.457,120.819z
		 M101.457,102.121h-14.61c-3.223,0-5.852-2.628-5.852-5.86c0-3.219,2.629-5.839,5.852-5.839h14.61c3.221,0,5.85,2.62,5.85,5.839
		C107.307,99.493,104.677,102.121,101.457,102.121z M101.457,83.406h-14.61c-3.223,0-5.852-2.618-5.852-5.842
		c0-3.227,2.629-5.85,5.852-5.85h14.61c3.221,0,5.85,2.623,5.85,5.85C107.307,80.788,104.677,83.406,101.457,83.406z"/>
</g>
<linearGradient id="SVGID_5_" gradientUnits="userSpaceOnUse" x1="83.1265" y1="160.7642" x2="83.1265" y2="3.8994">
	<stop  offset="0" style="stop-color:#121D30"/>
	<stop  offset="0.092" style="stop-color:#1E386A"/>
	<stop  offset="1" style="stop-color:#617498"/>
</linearGradient>
<path fill="url(#SVGID_5_)" d="M37.242,160.764c-17.946,0-32.538-14.598-32.538-32.554V36.449c0-17.951,14.592-32.55,32.538-32.55
	h91.756c17.959,0,32.551,14.6,32.551,32.55v91.761c0,17.956-14.592,32.554-32.551,32.554H37.242z"/>
<linearGradient id="SVGID_6_" gradientUnits="userSpaceOnUse" x1="83.1245" y1="155.3999" x2="83.1245" y2="9.2617">
	<stop  offset="0" style="stop-color:#2D3F62"/>
	<stop  offset="1" style="stop-color:#6F87B6"/>
</linearGradient>
<path fill="url(#SVGID_6_)" d="M128.998,155.4H37.242c-14.978,0-27.183-12.194-27.183-27.189V36.449
	c0-14.984,12.206-27.188,27.183-27.188h91.756c14.988,0,27.192,12.204,27.192,27.188v91.761
	C156.19,143.206,143.986,155.4,128.998,155.4L128.998,155.4z"/>
<linearGradient id="SVGID_7_" gradientUnits="userSpaceOnUse" x1="83.1245" y1="36.4492" x2="83.1245" y2="9.2612">
	<stop  offset="0" style="stop-color:#5C7EAC"/>
	<stop  offset="1" style="stop-color:#96AFD3"/>
</linearGradient>
<path fill="url(#SVGID_7_)" d="M156.19,36.449h-2.684c0-13.513-10.992-24.507-24.509-24.507H37.242
	c-13.51,0-24.497,10.994-24.497,24.507h-2.686c0-14.988,12.195-27.188,27.183-27.188h91.756
	C143.99,9.261,156.19,21.461,156.19,36.449L156.19,36.449z"/>
<path fill-rule="evenodd" clip-rule="evenodd" fill="#FFFFFF" d="M137.999,128.632c0.627,0,1.251-0.626,1.251-1.354
	c0-21.431,0-41.196,0-62.624c0-0.728-0.625-1.352-1.251-1.352c-36.406,0-72.817,0-109.121,0c-0.729,0-1.354,0.625-1.354,1.352
	c0,21.428,0,41.193,0,62.624c0,0.728,0.624,1.354,1.354,1.354C65.182,128.632,101.593,128.632,137.999,128.632L137.999,128.632z
	 M129.575,37.711h2.602c1.455,0,2.81,1.249,2.81,2.812v2.6c0,1.561-1.354,2.806-2.81,2.806h-2.602c-1.664,0-2.808-1.245-2.808-2.806
	v-2.6C126.767,38.96,127.911,37.711,129.575,37.711L129.575,37.711z M117.714,37.711h-2.597c-1.46,0-2.809,1.249-2.809,2.812v2.6
	c0,1.561,1.348,2.806,2.809,2.806h2.597c1.67,0,2.81-1.245,2.81-2.806v-2.6C120.524,38.96,119.384,37.711,117.714,37.711
	L117.714,37.711z M100.866,37.711h2.6c1.456,0,2.81,1.249,2.81,2.812v2.6c0,1.561-1.354,2.806-2.81,2.806h-2.6
	c-1.563,0-2.813-1.245-2.813-2.806v-2.6C98.053,38.96,99.303,37.711,100.866,37.711L100.866,37.711z M27.524,54.46
	c0-0.831,0.624-1.456,1.354-1.456c36.304,0,72.715,0,109.121,0c0.627,0,1.251,0.625,1.251,1.456c0,1.145,0,2.499,0,3.643
	c0,0.728-0.625,1.351-1.251,1.351c-36.406,0-72.817,0-109.121,0c-0.729,0-1.354-0.623-1.354-1.351
	C27.524,56.958,27.524,55.604,27.524,54.46L27.524,54.46z M143.203,36.777c0,30.688,0,61.375,0,92.062
	c0,2.915-2.392,5.203-5.305,5.203c-2.186,0-106.837,0-108.916,0c-2.915,0-5.202-2.288-5.202-5.203c0-30.687,0-61.373,0-92.062
	c0-2.808,2.288-5.204,5.202-5.204c36.305,0,72.506,0,108.916,0C140.812,31.573,143.203,33.969,143.203,36.777z"/>
<path fill="#FFFFFF" d="M27.018,114.031h8.381c0,5.2-0.452,10.288-1.355,15.375h4.068c0.905-5.087,1.355-10.175,1.468-15.375h11.875
	c-0.229,5.2-1.361,10.398-3.28,15.375h4.633c1.922-4.977,2.939-10.175,3.163-15.375h9.156c-0.226,5.428-1.692,10.626-4.066,15.375
	h4.634c2.375-5.312,3.843-11.19,3.843-17.523c0-23.398-18.991-42.279-42.392-42.279 M50.886,90.065
	c1.923-0.567,3.957-1.472,5.767-2.372c4.862,6.102,8.025,13.677,8.475,22.159h-9.156C55.636,102.953,54.054,96.282,50.886,90.065
	L50.886,90.065z M39.581,75.82c5.317,1.924,10.176,4.861,14.018,8.591c-1.466,0.793-3.165,1.47-4.747,2.035
	C46.364,82.489,43.313,78.87,39.581,75.82L39.581,75.82z M22.85,74.012h0.227l0,0 M27.147,89.838c-0.113-6.31,0-11.119,0-16.051
	c2.6,4.632,4.521,10.173,5.88,16.051l0,0c-1.923,0.113-3.977,0.227-6.009,0.227 M26.985,94.247c2.372,0,4.796-0.11,6.946-0.224
	c0.903,4.974,1.468,10.289,1.468,15.829l0,0h-8.366 M38.001,93.456c3.049-0.454,6.1-1.133,8.928-1.922
	c2.827,5.654,4.298,11.986,4.526,18.318H39.581C39.468,104.312,38.905,98.656,38.001,93.456L38.001,93.456z M31.329,74.012h0.227
	c5.652,3.619,10.062,8.251,13.341,13.564c-2.602,0.793-5.202,1.36-7.915,1.813C35.625,83.846,33.702,78.535,31.329,74.012
	L31.329,74.012z"/>
<path fill="#FFFFFF" d="M128.93,117.632l-16.397-16.399c2.027-3.167,3.222-6.925,3.222-10.96c0-11.25-9.154-20.404-20.406-20.404
	c-11.251,0-20.405,9.154-20.405,20.404c0,11.254,9.154,20.404,20.405,20.404c4.382,0,8.437-1.402,11.768-3.762l16.265,16.267
	L128.93,117.632z M79.65,90.273c0-8.654,7.042-15.694,15.697-15.694c8.656,0,15.696,7.04,15.696,15.694s-7.04,15.698-15.696,15.698
	C86.692,105.971,79.65,98.927,79.65,90.273z"/>
<g>
	<path fill="#2D3F62" d="M696.568,48.362c0,0.09-0.017,0.168-0.051,0.236c-0.034,0.065-0.106,0.123-0.218,0.167
		c-0.113,0.045-0.27,0.078-0.47,0.101c-0.203,0.021-0.47,0.034-0.805,0.034c-0.293,0-0.528-0.012-0.712-0.034
		c-0.186-0.023-0.334-0.06-0.445-0.109c-0.113-0.051-0.197-0.121-0.259-0.21c-0.062-0.089-0.115-0.2-0.161-0.335l-1.994-5.114
		c-0.234-0.582-0.479-1.115-0.731-1.601c-0.249-0.486-0.549-0.906-0.896-1.257c-0.348-0.354-0.753-0.626-1.223-0.823
		c-0.472-0.194-1.036-0.293-1.694-0.293h-1.928v9.239c0,0.09-0.026,0.168-0.077,0.236c-0.05,0.065-0.127,0.119-0.234,0.158
		c-0.106,0.04-0.252,0.072-0.436,0.102c-0.186,0.027-0.417,0.042-0.696,0.042c-0.28,0-0.511-0.014-0.694-0.042
		c-0.184-0.03-0.333-0.062-0.446-0.102c-0.11-0.04-0.188-0.093-0.234-0.158c-0.045-0.068-0.067-0.146-0.067-0.236V28.275
		c0-0.436,0.115-0.739,0.345-0.914c0.229-0.172,0.473-0.259,0.729-0.259h4.613c0.546,0,1.001,0.014,1.365,0.042
		c0.362,0.028,0.69,0.059,0.98,0.093c0.839,0.144,1.578,0.375,2.223,0.686c0.643,0.313,1.182,0.709,1.616,1.191
		c0.437,0.48,0.764,1.031,0.981,1.652c0.218,0.619,0.328,1.304,0.328,2.053c0,0.728-0.098,1.378-0.294,1.953
		c-0.196,0.577-0.479,1.084-0.847,1.527c-0.369,0.442-0.812,0.825-1.325,1.148c-0.514,0.323-1.091,0.599-1.727,0.82
		c0.356,0.157,0.682,0.355,0.974,0.595c0.29,0.242,0.561,0.53,0.813,0.865c0.251,0.335,0.487,0.72,0.712,1.156
		c0.224,0.437,0.447,0.928,0.67,1.476l1.946,4.779c0.156,0.402,0.257,0.684,0.301,0.847
		C696.546,48.148,696.568,48.272,696.568,48.362z M692.225,33.122c0-0.851-0.19-1.568-0.569-2.155
		c-0.381-0.587-1.017-1.01-1.911-1.266c-0.279-0.079-0.596-0.135-0.948-0.168c-0.353-0.034-0.813-0.05-1.382-0.05h-2.432v7.31h2.815
		c0.76,0,1.416-0.091,1.971-0.276c0.553-0.185,1.015-0.442,1.383-0.771c0.369-0.329,0.642-0.718,0.813-1.167
		C692.138,34.133,692.225,33.647,692.225,33.122z"/>
</g>
<g>
	<path fill="#2D3F62" d="M688.188,57.35c-10.347,0-18.763-8.417-18.763-18.763c0-10.343,8.416-18.76,18.763-18.76
		c10.344,0,18.76,8.417,18.76,18.76C706.947,48.933,698.531,57.35,688.188,57.35z M688.188,23.889
		c-8.106,0-14.701,6.594-14.701,14.698c0,8.107,6.595,14.701,14.701,14.701c8.104,0,14.698-6.594,14.698-14.701
		C702.886,30.482,696.292,23.889,688.188,23.889z"/>
</g>
</svg>
