<?xml version="1.0" encoding="utf-8"?>
<!-- Generator: Adobe Illustrator 16.0.0, SVG Export Plug-In . SVG Version: 6.00 Build 0)  -->
<!DOCTYPE svg PUBLIC "-//W3C//DTD SVG 1.1//EN" "http://www.w3.org/Graphics/SVG/1.1/DTD/svg11.dtd">
<svg version="1.1" id="Layer_1" xmlns="http://www.w3.org/2000/svg" xmlns:xlink="http://www.w3.org/1999/xlink" x="0px" y="0px"
	   preserveAspectRatio="xMidYMid meet" viewBox="-37.235 0 143.25 68.029" enable-background="new -37.235 0 143.25 68.029"
	 xml:space="preserve">
<g>
	<polygon points="-33.957,60.675 -17.226,60.675 -17.226,57.837 -30.701,57.837 -30.701,45.073 -18.455,45.073 -18.455,42.234
		-30.701,42.234 -30.701,30.42 -17.793,30.42 -17.793,27.58 -33.957,27.58 -33.957,60.675 	"/>
	<path fill-rule="evenodd" clip-rule="evenodd" d="M-7.398,30.42h4.776c2.488-0.021,4.738,0.395,6.75,1.248
		c2.011,0.852,3.613,2.266,4.805,4.24c1.191,1.975,1.802,4.637,1.83,7.982c-0.059,5.021-1.466,8.615-4.221,10.781
		c-2.755,2.162-6.503,3.219-11.245,3.166h-2.695V30.42L-7.398,30.42z M-10.655,60.675h5.763c3.673,0.018,6.925-0.527,9.758-1.635
		c2.833-1.109,5.059-2.883,6.678-5.324s2.444-5.652,2.476-9.637c0.015-3.25-0.535-6.107-1.65-8.576
		c-1.115-2.47-2.888-4.401-5.317-5.795c-2.429-1.394-5.606-2.103-9.532-2.127h-8.175V60.675L-10.655,60.675z"/>
	<path fill-rule="evenodd" clip-rule="evenodd" d="M31.766,8.521c0-1.499,0.473-2.822,1.418-3.968
		c0.945-1.146,2.095-1.719,3.449-1.719c0.959,0,1.734,0.297,2.327,0.891s0.89,1.443,0.89,2.547c0,1.528-0.438,2.894-1.313,4.097
		c-0.875,1.203-1.976,1.804-3.303,1.804c-0.986,0-1.811-0.339-2.475-1.019C32.098,10.475,31.766,9.597,31.766,8.521L31.766,8.521z
		 M20.72,32.211l-0.424-0.977l0.127-0.551c3.837-2.774,6.793-4.72,8.867-5.838c2.074-1.118,3.703-1.677,4.888-1.677
		c1.156,0,1.735,0.835,1.735,2.505c0,0.764-0.148,1.847-0.445,3.248c-0.296,1.4-1.008,4.224-2.137,8.469
		c-3.076,11.434-4.613,18.197-4.613,20.291c0,1.133,0.395,1.699,1.185,1.699c1.213,0,3.415-1.203,6.603-3.609l0.422,0.129
		l0.466,1.104l-0.084,0.51c-1.976,1.527-4.007,2.998-6.095,4.414c-2.088,1.414-3.577,2.313-4.466,2.695s-1.629,0.574-2.222,0.574
		c-0.846,0-1.509-0.369-1.989-1.105c-0.48-0.734-0.72-1.598-0.72-2.588c0-1.273,0.176-2.641,0.529-4.098
		c0.353-1.457,0.783-3.078,1.292-4.861c1.834-6.566,3.139-11.688,3.915-15.367c0.776-3.679,1.164-5.929,1.164-6.75
		c0-0.962-0.325-1.442-0.974-1.442c-0.424,0-0.833,0.106-1.228,0.317c-0.395,0.212-2.172,1.238-5.333,3.079L20.72,32.211
		L20.72,32.211z"/>
	<polygon points="44.737,60.675 47.993,60.675 47.993,32.127 48.088,32.127 64.594,60.675 68.986,60.675 68.986,27.58 65.729,27.58
		65.729,56.698 65.634,56.698 48.844,27.58 44.737,27.58 44.737,60.675 	"/>
	<path fill-rule="evenodd" clip-rule="evenodd" d="M73.231,60.675h3.167l3.546-8.867h16.639l3.545,8.867h3.403L90.438,27.58H86.75
		L73.231,60.675L73.231,60.675z M95.494,48.968H81.172l7.186-18.264L95.494,48.968L95.494,48.968z"/>
</g>
</svg>
