<?xml version="1.0" encoding="utf-8"?>
<!-- Generator: Adobe Illustrator 16.0.0, SVG Export Plug-In . SVG Version: 6.00 Build 0)  -->
<!DOCTYPE svg PUBLIC "-//W3C//DTD SVG 1.1//EN" "http://www.w3.org/Graphics/SVG/1.1/DTD/svg11.dtd">
<svg version="1.1" id="Layer_1" xmlns="http://www.w3.org/2000/svg" xmlns:xlink="http://www.w3.org/1999/xlink" x="0px" y="0px"
	   preserveAspectRatio="xMidYMid meet" viewBox="0 0 68.029 68.029" enable-background="new 0 0 68.029 68.029" xml:space="preserve">
<path d="M61.573,3.187H6.094c-1.901,0-3.442,1.541-3.442,3.442v55.479c0,1.9,1.541,3.441,3.442,3.441h29.868V41.399h-8.127v-9.412
	h8.127v-6.941c0-8.055,4.92-12.441,12.105-12.441c3.441,0,6.4,0.256,7.262,0.371v8.418l-4.983,0.002
	c-3.907,0-4.664,1.857-4.664,4.582v6.009h9.319l-1.213,9.412h-8.106v24.149h15.892c1.9,0,3.441-1.541,3.441-3.441V6.629
	C65.014,4.727,63.473,3.187,61.573,3.187z"/>
</svg>
