<?xml version="1.0" encoding="utf-8"?>
<!-- Generator: Adobe Illustrator 16.0.0, SVG Export Plug-In . SVG Version: 6.00 Build 0)  -->
<!DOCTYPE svg PUBLIC "-//W3C//DTD SVG 1.1//EN" "http://www.w3.org/Graphics/SVG/1.1/DTD/svg11.dtd">
<svg version="1.1" id="Layer_1" xmlns="http://www.w3.org/2000/svg" xmlns:xlink="http://www.w3.org/1999/xlink" x="0px" y="0px"
	   viewBox="-10.414 0 88.41 68.029" enable-background="new -10.414 0 88.41 68.029"
	 xml:space="preserve">
<g>
	<path d="M20.256,48.863h-1.443c4.736-2.294,8.151-6.355,8.151-11.658c0-6.719-5.439-12.268-12.147-12.268
		c-6.718,0-12.16,5.607-12.16,12.328c0,5.302,3.419,9.305,8.158,11.599H9.366c-6.022,0-16.331,4.383-16.331,10.411v5.636h43.555
		v-5.636C36.591,53.246,26.266,48.863,20.256,48.863z"/>
	<path d="M53.238,2.548c-11.748,0-21.273,7.654-21.273,17.104c0,4.154,1.847,7.971,4.925,10.935l-5.929,6.347l13.312-1.785
		c2.729,1.017,5.763,1.606,8.966,1.606c11.754,0,21.279-7.654,21.279-17.103C74.517,10.201,64.992,2.548,53.238,2.548z
		 M52.74,31.957c-1.621,0-2.737-1.226-2.737-2.81c0-1.657,1.152-2.809,2.737-2.809c1.62,0,2.7,1.152,2.738,2.809
		C55.478,30.731,54.397,31.957,52.74,31.957z M56.666,18.522c-1.404,1.657-1.98,3.134-1.909,4.862l0.036,0.756h-3.89l-0.073-0.937
		c-0.179-1.873,0.469-3.853,2.162-5.907c1.368-1.62,2.27-2.881,2.27-4.285c0-1.513-0.938-2.521-2.954-2.557
		c-1.261,0-2.701,0.396-3.602,1.08l-1.081-3.169c1.297-0.829,3.386-1.477,5.656-1.477c4.465,0,6.519,2.594,6.519,5.475
		C59.8,14.957,58.215,16.758,56.666,18.522z"/>
</g>
</svg>
