<?xml version="1.0" encoding="utf-8"?>
<!-- Generator: Adobe Illustrator 16.0.0, SVG Export Plug-In . SVG Version: 6.00 Build 0)  -->
<!DOCTYPE svg PUBLIC "-//W3C//DTD SVG 1.1//EN" "http://www.w3.org/Graphics/SVG/1.1/DTD/svg11.dtd">
<svg version="1.1" id="Layer_1" xmlns="http://www.w3.org/2000/svg" xmlns:xlink="http://www.w3.org/1999/xlink" x="0px" y="0px"
	   viewBox="0 0 68.029 68.029" enable-background="new 0 0 68.029 68.029" xml:space="preserve">
<path d="M34.015,2.834c-17.223,0-31.183,13.96-31.183,31.18c0,17.224,13.96,31.182,31.183,31.182
	c17.224,0,31.183-13.958,31.183-31.182C65.198,16.794,51.239,2.834,34.015,2.834z M41.11,46.926
	c-1.499,2.288-2.888,4.339-4.546,5.888c-1.65,1.546-3.68,2.574-6.142,2.56c-0.028,0-0.055,0-0.079,0c-1.926,0-3.35-0.805-4.112-1.89
	c-0.775-1.082-0.952-2.273-0.957-3.139c0.022-1.292,0.657-3.764,1.442-6.777c0.788-2.971,1.736-6.299,2.379-8.708
	c0.422-1.542,0.723-2.814,0.737-3.041c-0.045-0.509-0.069-0.416-0.246-0.561c-0.208-0.12-0.763-0.211-1.425-0.203
	c-0.203,0-0.411,0.005-0.614,0.013c-0.304,0.011-0.601-0.097-0.817-0.307c-0.221-0.208-0.344-0.502-0.344-0.808v-1.576
	c0-0.582,0.448-1.066,1.028-1.11c2.3-0.171,7.781-0.704,11.633-1.608c0.381-0.092,0.78,0.024,1.055,0.307
	c0.274,0.286,0.375,0.689,0.271,1.066c-1.704,6.275-4.142,14.782-5.241,19.382c-0.266,1.097-0.447,2.022-0.525,2.517
	c0.061-0.034,0.131-0.079,0.197-0.133c0.305-0.222,0.677-0.597,1.056-1.031c0.755-0.882,1.529-2.017,2.107-2.888
	c0.338-0.506,1.014-0.644,1.523-0.32l1.288,0.818c0.247,0.16,0.422,0.412,0.49,0.706C41.327,46.372,41.273,46.675,41.11,46.926z
	 M37.609,22.713c-0.012,0.002-0.027,0.002-0.04,0.002c-1.696,0-3.03-0.829-3.801-1.852c-0.788-1.036-1.124-2.215-1.131-3.238
	c0.012-1.01,0.392-2.145,1.188-3.153c0.79-0.995,2.109-1.827,3.784-1.817c2.833,0.006,5.134,2.292,5.146,5.091
	C42.747,20.485,40.468,22.708,37.609,22.713z"/>
</svg>
