<?xml version="1.0" encoding="utf-8"?>
<!-- Generator: Adobe Illustrator 16.0.0, SVG Export Plug-In . SVG Version: 6.00 Build 0)  -->
<!DOCTYPE svg PUBLIC "-//W3C//DTD SVG 1.1//EN" "http://www.w3.org/Graphics/SVG/1.1/DTD/svg11.dtd">
<svg version="1.1" id="Layer_1" xmlns="http://www.w3.org/2000/svg" xmlns:xlink="http://www.w3.org/1999/xlink" x="0px" y="0px"
	   viewBox="-13.051 0 92.981 68.029" enable-background="new -13.051 0 92.981 68.029"
	 xml:space="preserve">
<g>
	<path d="M3.669,48.809c0-5.325,4.336-9.658,9.658-9.658c1.764,0,3.413,0.483,4.837,1.31c-1.674-2.877-4.785-4.822-8.349-4.822
		c-5.326,0-9.658,4.332-9.658,9.659c0,3.563,1.944,6.674,4.822,8.348C4.153,52.222,3.669,50.572,3.669,48.809z"/>
	<path d="M51.085,48.809c0-5.325,4.335-9.658,9.658-9.658c1.763,0,3.413,0.483,4.836,1.31c-1.673-2.877-4.784-4.822-8.348-4.822
		c-5.327,0-9.659,4.332-9.659,9.659c0,3.563,1.945,6.674,4.822,8.348C51.568,52.222,51.085,50.572,51.085,48.809z"/>
	<g>
		<path d="M75.642,37.038c-4.86-11.075-11.555-19.197-21.046-25.127c0-4.848-3.931-8.781-8.78-8.781s-8.78,3.933-8.78,8.781v1.759
			c0,0.969-0.786,1.756-1.757,1.756h-3.513c-0.971,0-1.756-0.787-1.756-1.756v-1.759c0-4.848-3.931-8.781-8.78-8.781
			c-4.851,0-8.78,3.933-8.78,8.781C2.959,17.841-3.74,25.963-8.597,37.038c-1.135,2.524-1.783,5.316-1.783,8.26
			c0,11.135,9.059,20.194,20.195,20.194c8.564,0,15.881-5.367,18.813-12.906c1.4,0.939,3.08,1.492,4.895,1.492
			c1.813,0,3.496-0.553,4.896-1.492c2.933,7.539,10.249,12.906,18.813,12.906c11.137,0,20.194-9.06,20.194-20.194
			C77.426,42.354,76.778,39.562,75.642,37.038z M9.815,60.224c-8.231,0-14.927-6.697-14.927-14.927
			c0-8.232,6.695-14.927,14.927-14.927c8.232,0,14.927,6.695,14.927,14.927C24.742,53.527,18.048,60.224,9.815,60.224z
			 M33.522,48.809c-1.938,0-3.512-1.576-3.512-3.512c0-1.938,1.574-3.513,3.512-3.513c1.939,0,3.514,1.574,3.514,3.513
			C37.036,47.233,35.462,48.809,33.522,48.809z M57.231,60.224c-8.232,0-14.927-6.697-14.927-14.927
			c0-8.232,6.694-14.927,14.927-14.927c8.231,0,14.927,6.695,14.927,14.927C72.158,53.527,65.463,60.224,57.231,60.224z"/>
	</g>
</g>
</svg>
