<?xml version="1.0" encoding="utf-8"?>
<!-- Generator: Adobe Illustrator 16.0.0, SVG Export Plug-In . SVG Version: 6.00 Build 0)  -->
<!DOCTYPE svg PUBLIC "-//W3C//DTD SVG 1.1//EN" "http://www.w3.org/Graphics/SVG/1.1/DTD/svg11.dtd">
<svg version="1.1" id="Layer_1" xmlns="http://www.w3.org/2000/svg" xmlns:xlink="http://www.w3.org/1999/xlink" x="0px" y="0px"
	   viewBox="0 0 68.029 68.029" enable-background="new 0 0 68.029 68.029" xml:space="preserve">
<g>
	<path d="M36.791,4.943v21.106c0,1.222-0.981,2.21-2.197,2.21H23.916v2.369c2.291,0.229,4.183,0.641,5.03,1.253
		c0,0.67,0,1.252,0,1.252H10.101c0,0,0-0.924,0-1.252c0.845-0.613,2.738-1.025,5.027-1.253V28.26H4.452
		c-1.217,0-2.198-0.988-2.198-2.21V4.943c0-1.213,0.981-2.201,2.198-2.201h30.142C35.809,2.742,36.791,3.729,36.791,4.943z
		 M33.587,5.81H5.457v19.38h28.13V5.81z"/>
	<path d="M42.011,44.928c0.03,0.395-0.486,0.475-0.764,0.495c-0.512,0.037-0.541-0.049-0.646-0.462h-0.043
		C40.793,44.773,41.724,44.815,42.011,44.928z M46.076,57.937c-0.012,0.006-0.023,0.016-0.034,0.024c0,0.002,0.002,0.008,0,0.014
		C46.044,57.971,46.068,57.941,46.076,57.937z M64.881,47.461c0,9.739-7.9,17.644-17.644,17.644
		c-9.746,0-17.643-7.904-17.643-17.644c0-9.743,7.896-17.646,17.643-17.646C56.98,29.815,64.881,37.718,64.881,47.461z
		 M53.872,45.828c0.182-1,1.24-1.715,1.754-2.546c0.29-0.464,0.456-0.615,0.987-0.664c0.61-0.055,1.037-0.249,1.573-0.535
		c0.457-0.243,0.728-0.36,1.087,0.063c0.51,0.604,0.781,0.641,1.549,0.417c0.028-0.009,0.051-0.015,0.076-0.019
		c-0.143-0.401-0.301-0.794-0.479-1.178c-0.303-0.134-0.574-0.3-0.843-0.563c-0.375-0.371-1.135-0.555-1.588-0.174
		c-0.354,0.295-0.036,0.74-0.571,1.002c-0.573,0.279-2.374,0.2-1.368-0.707c0.295-0.27,1.054-0.209,1.232-0.494
		c0.253-0.404-0.328-0.453-0.432-0.732c-0.079-0.229,0.193-0.441,0.136-0.635c-0.164-0.594-1.049,0.262-1.405-0.179
		c-0.326-0.403,0.206-1.093,0.553-1.287c0.356-0.2,0.858-0.143,1.175-0.381c0.046-0.03,0.063-0.089,0.098-0.134
		c-0.844-0.823-1.791-1.542-2.815-2.146c-0.456,0.528-1.447,0.664-2.065,0.759c-0.469,0.071-0.877,0.166-1.267,0.467
		c-0.325,0.254-0.622,0.756-1.049,0.857c-1.112,0.26-0.524-1.244-0.397-1.705c0.248-0.921-0.449-1.133-1.199-1.079
		c-0.387,0.028-0.582-0.015-0.906-0.232c-0.278-0.186-0.507-0.463-0.871-0.314c-0.243,0.1-0.594,0.612-0.567,0.88
		c0.034,0.344,0.277,0.299,0.56,0.418c0.423,0.178,0.737,0.489,0.737,0.975c0,0.359-0.249,0.875-0.672,0.864
		c-0.418-0.017-0.618-0.543-0.76-0.86c-0.243-0.529-0.409-0.504-0.867-0.839c-0.897-0.663,0.564-1.109,0.4-1.819
		c-0.024-0.114-0.074-0.2-0.134-0.275c-1.453,0.172-2.845,0.553-4.134,1.119c0.003,0.012,0.012,0.023,0.012,0.038
		c0.005,0.36-0.433,0.349,0.035,0.601c0.18,0.094,0.454-0.055,0.546,0.223c0.103,0.304-0.235,0.412-0.459,0.446
		c-0.414,0.062-1.049,0.003-1.104-0.495c-0.155-0.02-0.438-0.022-0.66,0.043c-0.018,0.01-0.038,0.02-0.055,0.035
		c0.067,0.137,0.137,0.277,0.202,0.408c0.187,0.369,0.25,0.415,0.739,0.438c0.494,0.019,1.094,0.028,1.582-0.063
		c0.558-0.105,1.486-1.327,1.9-0.349c0.352,0.832-0.729,0.912-1.22,1.075c-0.979,0.318-0.585,1.262,0.188,1.511
		c1.106,0.36,1.464-1.091,2.423-1.253c0.604-0.104,1.16,0.855,1.619,1.173c0.345,0.239,0.764,0.388,0.776,0.858
		c0.01,0.389-0.277,0.806-0.691,0.776c-0.103-0.479-0.953-0.862-1.321-0.466c0.084,0.109,0.163,0.176,0.308,0.192
		c0.21,1.013-1.306,0.721-1.772,0.952c-0.421,0.212-0.574,0.563-0.86,0.896c-0.27,0.303-0.602,0.512-0.894,0.767
		c0.032-0.038,0.077-0.055,0.102-0.083c-0.003-0.002-0.087,0.045-0.087,0.039c0.01-0.022,0.034-0.039,0.043-0.064
		c-0.558,0.563-0.786,0.866-0.964,1.593c-0.135,0.553-0.469,0.967-1.055,0.93c0.183-0.595,0.036-1.05-0.606-1.264
		c-0.997-0.333-2.745,0.266-2.715,1.545c0.011,0.451,0.435,1.055,0.89,1.106c0.457,0.051,1.416-0.77,1.645,0.012
		c0.02,0.079-0.608,0.282-0.499,0.56c0.079,0.227,0.625,0.163,0.754,0.43c0.128,0.263-0.034,0.568,0.172,0.829
		c0.535,0.669,1.345-0.068,1.873-0.292c0.795-0.338,1.588,0.025,2.244,0.493c0.628,0.451,1.297,0.717,1.955,1.109
		c0.543,0.328,0.891,0.89,1.486,1.141c0.682,0.289,1.877,0.28,2.318,0.974c0.456,0.717-0.753,1.169-0.862,1.827
		c-0.056,0.36,0.19,0.681,0.17,1.03c-0.025,0.437-0.355,0.626-0.704,0.816c-0.343,0.196-0.822,0.337-1.035,0.695
		c-0.166,0.271-0.092,0.587-0.18,0.873c-0.227,0.725-1.088,1.177-1.608,1.683c0.005,0.002,0.012,0.012,0.012,0.021
		c-0.086,0.059-0.166,0.101-0.266,0.149c0.062-0.059,0.109-0.129,0.16-0.18c-0.152,0.078-0.342,0.194-0.433,0.348
		c-0.297,0.509-0.018,1.776,0.18,2.301c0.352,0.918-0.319,0.975-0.989,0.539c-1.642-1.071-1.727-3.172-1.502-4.954
		c0.144-1.13,0.421-2.197-0.555-2.985c-0.737-0.601-2.03-1.443-1.885-2.549c0.081-0.609,1.057-1.406,0.62-1.986
		c-0.208-0.286-0.666-0.438-0.918-0.71c-0.248-0.265-0.418-0.474-0.729-0.664c-0.276-0.168-0.521-0.383-0.792-0.549
		c-0.457-0.268-1.021-0.228-1.527-0.309c-1.213-0.191-1.248-0.771-1.565-1.775c-0.543-0.028-0.505,0.034-0.577-0.475
		c-0.061-0.406-0.19-0.578-0.477-0.816c-0.41-0.34-0.797-0.738-1.068-1.194c-0.648,1.645-1.014,3.429-1.014,5.309
		c0,8.026,6.506,14.533,14.532,14.533c5.546,0,10.366-3.107,12.814-7.682c-0.514-0.868,0.429-1.59,0.45-2.562
		c0.017-0.907-1.3-1.038-1.336-2.026c-0.052-1.405-0.956-1.369-2.078-0.836c-1.207,0.571-1.888,0.136-2.567-0.948
		C54.132,47.323,53.736,46.585,53.872,45.828z"/>
	<path d="M11.046,44.807l-4.926-1.89c-0.673-0.26-1.272,0.121-1.331,0.841l-0.423,5.259c-0.057,0.724-0.149,1.9-0.207,2.62
		l-0.423,5.261c-0.059,0.721,0.493,0.932,1.226,0.472l3.467-2.185c1.538,1.638,3.223,3.037,5.145,4.272
		c3.025,1.979,7.228,2.906,10.303,1.313c-3.283,0.03-5.428-2.017-6.881-4.406c-0.93-1.554-1.667-3.391-2.173-5.207l3.502-2.202
		c0.735-0.464,0.779-1.053,0.106-1.312l-4.928-1.891C12.828,45.494,11.723,45.069,11.046,44.807z"/>
	<path d="M56.267,24.065l4.926,1.891c0.674,0.258,1.273-0.122,1.332-0.841l0.422-5.26c0.057-0.722,0.149-1.899,0.208-2.62
		l0.422-5.26c0.059-0.72-0.493-0.932-1.226-0.472l-3.467,2.184c-1.537-1.637-3.223-3.036-5.145-4.271
		c-3.025-1.98-7.227-2.906-10.303-1.313c3.283-0.03,5.428,2.016,6.881,4.406c0.93,1.554,1.667,3.391,2.174,5.207l-3.502,2.203
		c-0.736,0.464-0.779,1.052-0.107,1.311l4.929,1.892C54.485,23.38,55.591,23.804,56.267,24.065z"/>
</g>
</svg>
