<?xml version="1.0" encoding="utf-8"?>
<!-- Generator: Adobe Illustrator 16.0.0, SVG Export Plug-In . SVG Version: 6.00 Build 0)  -->
<!DOCTYPE svg PUBLIC "-//W3C//DTD SVG 1.1//EN" "http://www.w3.org/Graphics/SVG/1.1/DTD/svg11.dtd" [
	<!ENTITY ns_extend "http://ns.adobe.com/Extensibility/1.0/">
	<!ENTITY ns_ai "http://ns.adobe.com/AdobeIllustrator/10.0/">
	<!ENTITY ns_graphs "http://ns.adobe.com/Graphs/1.0/">
	<!ENTITY ns_vars "http://ns.adobe.com/Variables/1.0/">
	<!ENTITY ns_imrep "http://ns.adobe.com/ImageReplacement/1.0/">
	<!ENTITY ns_sfw "http://ns.adobe.com/SaveForWeb/1.0/">
	<!ENTITY ns_custom "http://ns.adobe.com/GenericCustomNamespace/1.0/">
	<!ENTITY ns_adobe_xpath "http://ns.adobe.com/XPath/1.0/">
]>
<svg version="1.1" id="Layer_1" xmlns:x="&ns_extend;" xmlns:i="&ns_ai;" xmlns:graph="&ns_graphs;"
	 xmlns="http://www.w3.org/2000/svg" xmlns:xlink="http://www.w3.org/1999/xlink" x="0px" y="0px" width="68.029px"
	 height="68.029px" viewBox="0 0 68.029 68.029" enable-background="new 0 0 68.029 68.029" xml:space="preserve">
<metadata>
	<sfw  xmlns="&ns_sfw;">
		<slices></slices>
		<sliceSourceBounds  width="62.586" height="62.586" y="266.362" x="389.199" bottomLeftOrigin="true"></sliceSourceBounds>
	</sfw>
</metadata>
<path fill="#FFFFFF" d="M50.656,45.27c-0.969,0-1.825,0-2.787,0c0.056-0.83,0.056-1.642,0.179-2.435
	c0.105-0.676,0.548-0.973,1.189-0.973c0.645-0.002,1.089,0.289,1.203,0.963C50.575,43.618,50.588,44.43,50.656,45.27z"/>
<g>
	<path d="M40.402,39.565c-0.977,0-1.899,0.541-2.77,1.63v-6.563h-2.729V54.72h2.729v-1.467c0.896,1.115,1.82,1.671,2.77,1.671
		c1.116,0,1.836-0.569,2.161-1.712c0.189-0.57,0.284-1.563,0.284-2.975v-5.949c0-1.44-0.095-2.444-0.284-3.013
		C42.238,40.135,41.518,39.565,40.402,39.565L40.402,39.565z M40.159,50.444c0,1.333-0.393,1.994-1.18,1.994
		c-0.464,0-0.914-0.217-1.347-0.649V42.66c0.433-0.433,0.883-0.648,1.347-0.648c0.784,0,1.18,0.676,1.18,2.034V50.444z
		 M40.159,50.444"/>
	<path d="M49.042,39.565c-1.386,0-2.472,0.518-3.26,1.548c-0.545,0.731-0.814,1.901-0.814,3.504v5.259
		c0,1.599,0.284,2.767,0.855,3.502c0.788,1.033,1.886,1.549,3.3,1.549c1.44,0,2.526-0.543,3.26-1.632
		c0.328-0.487,0.531-1.032,0.612-1.631c0.055-0.378,0.081-0.963,0.081-1.751v-0.364h-2.773v0.871c0,0.287-0.006,0.511-0.016,0.677
		c-0.018,0.158-0.021,0.258-0.021,0.283c-0.165,0.707-0.57,1.059-1.224,1.059c-0.923,0-1.383-0.692-1.383-2.08v-2.646h5.417v-3.098
		c0-1.573-0.284-2.742-0.855-3.503C51.486,40.083,50.428,39.565,49.042,39.565L49.042,39.565z M50.347,45.473h-2.691v-1.387
		c0-1.387,0.449-2.075,1.346-2.075c0.896,0,1.346,0.688,1.346,2.075V45.473z M50.347,45.473"/>
	<path d="M29.849,51.177c-0.596,0.843-1.167,1.262-1.711,1.262c-0.378,0-0.586-0.203-0.609-0.612c-0.03-0.049-0.04-0.404-0.04-1.058
		V39.769h-2.691v11.813c0,1.035,0.079,1.765,0.247,2.201c0.243,0.761,0.814,1.141,1.709,1.141c1.007,0,2.037-0.612,3.096-1.834v1.63
		h2.732V39.769h-2.732V51.177z M29.849,51.177"/>
	<path d="M33.396,24.407c0.869,0,1.305-0.694,1.305-2.08v-6.356c0-1.41-0.436-2.118-1.305-2.118c-0.87,0-1.304,0.708-1.304,2.118
		v6.356C32.093,23.713,32.526,24.407,33.396,24.407L33.396,24.407z M33.396,24.407"/>
	<path d="M14.937,37.485h3.179V54.72h3.015V37.485h3.261v-2.854h-9.454V37.485z M14.937,37.485"/>
	<path d="M53.566,2.566H14.451c-3.232,0-5.999,1.15-8.295,3.442c-2.296,2.296-3.442,5.062-3.442,8.294v39.112
		c0,3.234,1.146,5.999,3.442,8.292c2.296,2.296,5.058,3.445,8.295,3.445h39.115c3.229,0,5.995-1.149,8.291-3.445
		c2.293-2.293,3.442-5.058,3.442-8.292V14.303c0-3.232-1.149-5.998-3.442-8.294C59.561,3.716,56.796,2.566,53.566,2.566
		L53.566,2.566z M39.672,11.612h2.729v11.083c0,0.65,0.013,1.005,0.04,1.059c0.027,0.437,0.244,0.653,0.652,0.653
		c0.542,0,1.113-0.42,1.711-1.265v-11.53h2.729v15.078h-2.729v-1.633c-1.115,1.224-2.159,1.835-3.137,1.835
		c-0.87,0-1.454-0.368-1.752-1.099c-0.162-0.49-0.247-1.236-0.247-2.241v-11.94H39.672z M29.362,16.501
		c0-1.575,0.284-2.756,0.855-3.543c0.733-1.031,1.792-1.549,3.179-1.549c1.328,0,2.388,0.518,3.175,1.549
		c0.571,0.787,0.855,1.968,0.855,3.543V21.8c0,1.626-0.284,2.81-0.855,3.543c-0.787,1.031-1.847,1.548-3.175,1.548
		c-1.387,0-2.445-0.517-3.179-1.548c-0.571-0.787-0.855-1.968-0.855-3.543V16.501z M22.027,6.438l2.162,7.946l2.076-7.946h3.055
		l-3.667,12.061v8.19H22.64v-8.19c-0.301-1.494-0.924-3.641-1.877-6.438c-0.189-0.626-0.503-1.563-0.936-2.813
		c-0.437-1.248-0.761-2.184-0.977-2.81H22.027z M55.601,55.616c-0.271,1.172-0.848,2.161-1.73,2.978
		c-0.883,0.813-1.907,1.291-3.077,1.426c-3.72,0.405-9.316,0.609-16.786,0.609c-7.472,0-13.064-0.204-16.788-0.609
		c-1.167-0.135-2.193-0.612-3.077-1.426c-0.881-0.816-1.456-1.806-1.73-2.978c-0.541-2.277-0.814-5.811-0.814-10.594
		c0-4.695,0.273-8.229,0.814-10.593c0.274-1.194,0.852-2.19,1.73-2.992c0.884-0.802,1.925-1.272,3.119-1.407
		c3.695-0.409,9.276-0.611,16.746-0.611c7.497,0,13.094,0.202,16.786,0.611c1.17,0.135,2.201,0.602,3.097,1.407
		c0.9,0.802,1.481,1.798,1.753,2.992c0.517,2.255,0.773,5.786,0.773,10.593C56.417,49.805,56.146,53.339,55.601,55.616
		L55.601,55.616z M55.601,55.616"/>
</g>
</svg>
