<?xml version="1.0" encoding="utf-8"?>
<!-- Generator: Adobe Illustrator 16.0.0, SVG Export Plug-In . SVG Version: 6.00 Build 0)  -->
<!DOCTYPE svg PUBLIC "-//W3C//DTD SVG 1.1//EN" "http://www.w3.org/Graphics/SVG/1.1/DTD/svg11.dtd">
<svg version="1.1" id="Layer_1" xmlns="http://www.w3.org/2000/svg" xmlns:xlink="http://www.w3.org/1999/xlink" x="0px" y="0px"
	 width="68.029px" height="68.029px" viewBox="0 0 68.029 68.029" enable-background="new 0 0 68.029 68.029" xml:space="preserve">
<path d="M65.591,58.704L46.41,39.523c2.373-3.705,3.769-8.102,3.769-12.821c0-13.16-10.707-23.867-23.869-23.867
	c-13.16,0-23.87,10.707-23.87,23.867c0,13.163,10.71,23.867,23.87,23.867c5.126,0,9.868-1.641,13.766-4.4l19.023,19.028
	L65.591,58.704z M7.948,26.701c0-10.123,8.238-18.358,18.362-18.358s18.358,8.235,18.358,18.358
	c0,10.122-8.234,18.362-18.358,18.362S7.948,36.823,7.948,26.701z"/>
</svg>
