<?xml version="1.0" encoding="utf-8"?>
<!-- Generator: Adobe Illustrator 16.0.0, SVG Export Plug-In . SVG Version: 6.00 Build 0)  -->
<!DOCTYPE svg PUBLIC "-//W3C//DTD SVG 1.1//EN" "http://www.w3.org/Graphics/SVG/1.1/DTD/svg11.dtd">
<svg version="1.1" id="Layer_1" xmlns="http://www.w3.org/2000/svg" xmlns:xlink="http://www.w3.org/1999/xlink" x="0px" y="0px"
	 width="68.03px" height="68.03px" viewBox="0 0 68.03 68.03" enable-background="new 0 0 68.03 68.03" xml:space="preserve">
<g>
	<path d="M27.625,65.272c13.592-0.513,18.66-7.433,23.295-19.104c4.413-11.103,10.644-13.815,10.037-15.589
		c-0.828-2.425-8.056-5.345-12.668,2.938c-0.772,1.388-1.616,2.54-2.417,3.53V11.002c0.002-1.593-1.294-3.839-3.837-3.839
		c-2.12-0.002-3.841,1.722-3.839,3.84l-0.002,20.974c-0.781-0.412-1.61-0.773-2.465-1.089V6.758c0-1.62-1.263-3.837-3.843-3.836
		c-2.117,0-3.836,1.715-3.838,3.836v22.724c0,0-1.229-0.07-2.464,0.068l0.001-20.804c0-1.802-1.4-3.84-3.845-3.839
		c-2.119-0.001-3.838,1.717-3.836,3.839L17.903,31.57c-0.862,0.408-1.692,0.859-2.467,1.37V15.484c0-1.675-1.366-3.492-3.492-3.493
		c-1.931,0.001-3.495,1.563-3.495,3.494L8.373,47.729C8.373,61.601,20.85,65.529,27.625,65.272z"/>
</g>
</svg>
